<svg version="1.1" id="Layer_1" xmlns="http://www.w3.org/2000/svg" xmlns:xlink="http://www.w3.org/1999/xlink" x="0px" y="0px"
	 width="100%" viewBox="0 0 752 752" enable-background="new 0 0 752 752" xml:space="preserve">
<path fill="#000000" opacity="1.000000" stroke="none" 
	d="
M538.945312,337.750519 
	C530.676331,353.714905 514.183899,358.983795 496.312012,354.790558 
	C441.593262,341.951996 404.647552,308.328613 382.953156,257.157227 
	C379.794556,249.706848 377.476257,241.900223 374.760071,234.232819 
	C371.918976,234.522675 372.362915,236.882782 371.858887,238.394928 
	C363.028290,264.886230 352.267487,290.460327 335.952759,313.344238 
	C323.610352,330.656342 309.198822,345.754944 289.161774,354.226440 
	C275.775757,359.885925 262.277771,362.061859 249.118149,353.358398 
	C236.658234,345.117645 231.311996,332.980713 229.622726,318.709564 
	C231.187210,318.261566 231.578598,319.130859 231.991806,319.779938 
	C244.541931,339.493774 265.784210,345.797272 287.061310,336.149994 
	C302.774353,329.025482 313.836365,316.579010 324.182007,303.439484 
	C347.962128,273.237457 362.450775,238.923279 368.496399,201.043671 
	C369.963470,191.851395 368.623383,182.479736 369.579529,173.188889 
	C371.041504,158.982681 373.085632,144.877441 375.531677,130.819183 
	C375.588776,130.491074 375.601074,130.145706 375.715240,129.838455 
	C376.730408,127.106552 377.134583,123.125168 380.828583,123.468880 
	C384.291473,123.791084 384.009247,127.729965 384.277374,130.383926 
	C386.027496,147.704910 384.100128,164.919983 382.606232,182.150330 
	C381.902863,190.262650 379.908447,198.321869 379.793030,206.345444 
	C379.674957,214.552963 382.732880,222.629807 385.369934,230.502914 
	C399.976593,274.112396 427.110565,307.060120 468.909637,327.002991 
	C481.359802,332.943115 494.554260,337.284454 508.646271,337.658752 
	C522.057312,338.014984 532.967346,333.094421 541.067566,322.247650 
	C541.724426,321.368073 542.085144,320.064392 543.918030,320.078430 
	C543.917419,326.342957 541.879700,331.975250 538.945312,337.750519 
z"/>
<path fill="#000000" opacity="1.000000" stroke="none" 
	d="
M483.556946,421.617432 
	C487.419220,412.167938 491.120667,403.067902 494.870392,393.987793 
	C495.476166,392.520813 495.605988,390.394470 497.714691,390.315979 
	C500.068085,390.228394 500.442963,392.432983 501.121674,394.073303 
	C509.144348,413.461700 517.118774,432.870087 525.169983,452.246582 
	C526.315430,455.003174 527.727173,457.658508 529.155884,460.284424 
	C529.998047,461.832336 531.374146,462.746582 533.274536,462.563995 
	C535.589661,462.341522 535.582214,460.523071 535.799194,458.883728 
	C537.083496,449.181427 538.438721,439.487488 539.608765,429.771362 
	C541.076843,417.580353 542.387451,405.370392 543.770874,393.169159 
	C543.950562,391.584534 544.424011,390.124756 546.310059,389.999023 
	C548.387573,389.860443 549.123718,391.555145 549.836304,393.039398 
	C555.242432,404.300110 560.588867,415.589386 565.990356,426.852325 
	C569.132507,433.404205 572.341858,439.923950 575.472900,446.359436 
	C578.545227,445.923828 578.929382,443.721497 579.745605,442.022614 
	C587.247314,426.409332 594.699585,410.772308 602.167969,395.143036 
	C602.527161,394.391388 602.887573,393.639679 603.273193,392.901459 
	C604.053772,391.407043 604.844238,389.700500 606.903931,390.113556 
	C608.938477,390.521576 609.048462,392.426727 609.256226,394.070801 
	C610.317383,402.465942 611.213257,410.884369 612.419250,419.258301 
	C614.685303,434.993042 615.320129,450.962311 619.348999,466.911713 
	C614.875671,467.801025 610.462097,467.323578 606.080688,467.201508 
	C604.416565,467.155151 603.815613,465.983612 603.988342,464.428040 
	C605.159607,453.878845 602.578491,443.612183 601.423889,433.261108 
	C600.862488,428.228790 601.239502,422.925171 598.528870,417.522125 
	C592.971191,428.954620 587.603516,439.996307 582.235901,451.038025 
	C580.269958,455.082214 578.335510,459.142181 576.323853,463.163483 
	C575.466980,464.876251 575.086914,467.302551 572.471130,467.127289 
	C570.006958,466.962128 569.614014,464.600800 568.779968,462.862762 
	C562.512634,449.801208 556.290039,436.718170 550.039795,423.648438 
	C549.189209,421.869751 548.262573,420.127441 546.852783,417.345367 
	C544.220093,434.553955 541.990723,450.701630 541.059387,467.132629 
	C533.987854,468.055023 527.042114,467.458527 520.110779,467.540894 
	C517.706055,467.569458 517.024170,466.009613 516.308411,464.275024 
	C513.513367,457.501312 510.492126,450.809937 507.999817,443.926849 
	C506.673309,440.263275 504.556396,439.110352 500.890015,439.323914 
	C496.737823,439.565796 492.542572,439.612854 488.398834,439.304138 
	C484.077667,438.982178 481.695221,440.537140 480.253265,444.728119 
	C478.035126,451.175018 475.098022,457.371338 472.744019,463.776154 
	C471.695099,466.630127 469.961060,467.542419 467.122803,467.527466 
	C448.125977,467.427307 429.128784,467.399139 410.131653,467.366394 
	C408.238678,467.363159 406.556274,467.066071 405.141235,465.594269 
	C394.716461,454.751068 385.183899,443.220673 377.640564,430.147461 
	C377.334839,429.617645 377.301697,428.930481 377.176270,428.449738 
	C378.416168,426.722198 379.925659,427.205200 381.410492,427.337341 
	C389.424255,428.050537 395.601624,423.998627 397.390045,416.904297 
	C399.180878,409.800385 394.821747,401.040405 388.001556,398.459778 
	C385.536011,397.526886 382.884247,397.035492 380.281128,396.529419 
	C376.721741,395.837463 375.036041,397.215729 375.096832,401.056305 
	C375.441559,422.839417 374.615906,444.639069 375.714905,467.040985 
	C371.219299,467.653900 366.377441,467.524048 361.513519,466.947235 
	C363.076416,441.551941 363.264557,416.553131 361.520782,390.820007 
	C373.995300,390.912689 386.823059,389.090240 399.051361,394.270447 
	C407.097992,397.679230 410.063049,404.649963 410.234314,412.793854 
	C410.401520,420.744446 406.319122,426.241486 399.144836,429.672668 
	C396.774811,430.806122 393.922668,430.783813 391.313049,433.202301 
	C399.057617,444.966309 409.143921,454.176788 420.652161,462.352478 
	C422.395844,459.594177 421.965424,457.194519 421.973663,454.949799 
	C422.037506,437.617920 421.999573,420.285675 421.975128,402.953522 
	C421.973022,401.455322 421.882355,399.953949 421.761841,398.459778 
	C421.144196,390.801270 421.136078,390.799896 429.200043,390.804382 
	C438.366272,390.809448 447.532745,390.779724 456.698639,390.840027 
	C462.518097,390.878326 463.708984,392.141296 464.421753,399.495789 
	C456.838135,395.668640 449.020142,396.316284 441.266632,396.412262 
	C434.905853,396.490997 434.366272,397.080841 434.348236,403.197906 
	C434.336426,407.197632 434.485840,411.202423 434.328827,415.195740 
	C434.191589,418.685730 435.808563,419.982941 439.110016,419.946686 
	C444.608673,419.886230 450.109955,419.896973 455.607574,420.006531 
	C457.264771,420.039551 459.788879,419.284790 459.903839,422.005585 
	C460.022736,424.818970 457.830261,425.387360 455.403595,425.371552 
	C450.237640,425.337891 445.071136,425.402893 439.904846,425.407562 
	C436.086823,425.411041 434.171844,426.896912 434.286072,431.116211 
	C434.520477,439.776093 434.451691,448.448395 434.307190,457.112244 
	C434.249756,460.557495 435.603241,461.929291 439.004089,461.884003 
	C447.002258,461.777466 455.003784,461.753174 463.001495,461.867950 
	C466.202850,461.913879 467.747742,460.395813 468.874054,457.578827 
	C473.633392,445.675720 478.551880,433.836243 483.556946,421.617432 
M488.530121,424.969818 
	C487.967499,427.300690 486.108673,429.330231 486.926208,432.495514 
	C491.871948,433.046875 496.848083,433.022369 502.509003,432.470398 
	C500.540375,425.346771 498.114838,419.096222 494.683960,412.675995 
	C491.351624,416.417755 490.658722,420.625366 488.530121,424.969818 
z"/>
<path fill="#000000" opacity="1.000000" stroke="none" 
	d="
M530.353577,263.345520 
	C525.958801,267.743805 524.736938,273.073151 524.397644,278.619110 
	C524.132385,282.955933 523.595398,287.231110 522.637329,291.449951 
	C519.611084,304.775574 510.199982,311.886414 496.663055,312.444489 
	C480.769379,313.099701 467.243378,307.013275 454.897797,298.252197 
	C427.374512,278.720276 406.075317,254.072067 395.487122,221.403015 
	C392.046295,210.786545 390.180847,199.784073 390.669159,188.520416 
	C390.730774,187.099503 390.201965,185.550903 391.756134,183.790421 
	C394.186218,192.358749 396.123108,200.690857 399.165588,208.695969 
	C410.214508,237.767212 427.187897,262.374939 453.268951,279.893402 
	C465.508453,288.114624 478.630157,294.701355 493.953674,294.648346 
	C501.428192,294.622498 507.153015,291.247803 510.236847,284.315002 
	C512.327759,279.614471 513.784668,274.636353 515.703857,269.854095 
	C519.466431,260.478638 525.769653,257.223389 536.239685,259.311096 
	C535.060547,261.770996 532.202209,261.570038 530.353577,263.345520 
z"/>
<path fill="#000000" opacity="1.000000" stroke="none" 
	d="
M280.919189,467.415405 
	C277.551636,467.641541 276.316986,466.514832 277.711304,463.621674 
	C278.775116,461.414276 278.673065,459.096893 278.673645,456.775452 
	C278.678864,435.801910 278.596649,414.827820 278.745850,393.855377 
	C278.770813,390.349823 277.521790,387.033661 277.671082,383.350098 
	C278.553833,383.121124 279.330322,382.729187 280.095917,382.749390 
	C293.214752,383.095306 306.335754,382.044006 319.464539,383.577209 
	C338.058807,385.748657 352.706635,400.336670 355.474091,418.905914 
	C359.624054,446.751465 335.072021,466.819000 312.790466,467.321228 
	C302.308746,467.557465 291.817993,467.394501 280.919189,467.415405 
M299.743805,461.685333 
	C303.735535,461.683868 307.740112,461.886200 311.716064,461.634949 
	C318.300354,461.218933 324.451782,459.362915 329.645721,455.065308 
	C346.217896,441.353149 343.928192,408.527771 325.698212,395.113281 
	C317.424408,389.024994 308.105225,389.009247 298.574921,388.922485 
	C293.907990,388.880035 292.203033,390.432373 292.257996,395.287140 
	C292.483978,415.243164 292.475891,435.204926 292.240692,455.160889 
	C292.181610,460.175385 293.807556,462.343811 299.743805,461.685333 
z"/>
<path fill="#000000" opacity="1.000000" stroke="none" 
	d="
M269.798279,299.672363 
	C282.964539,298.081360 292.775360,290.899353 301.721405,282.543854 
	C319.116394,266.297211 331.438507,246.306183 342.580902,225.531036 
	C345.768616,219.587463 348.715393,213.514664 352.191284,206.677734 
	C353.783783,210.158173 352.466949,212.542435 351.944275,214.675140 
	C345.492645,240.999100 335.044861,265.536377 318.234436,287.011322 
	C309.029602,298.770233 297.380219,307.591187 283.534149,313.262756 
	C260.275909,322.789642 240.570557,312.523804 234.791641,288.045837 
	C234.715378,287.722748 234.722839,287.379089 234.638931,287.058716 
	C232.279114,278.049133 230.654251,268.588226 220.024323,264.554321 
	C225.562698,261.786591 233.102463,263.432922 237.383041,267.802979 
	C240.612686,271.100098 242.270599,275.319336 244.246597,279.344421 
	C246.680145,284.301575 249.459885,288.953552 253.378922,292.961243 
	C257.831146,297.514221 262.907166,300.127625 269.798279,299.672363 
z"/>
<path fill="#000000" opacity="1.000000" stroke="none" 
	d="
M644.373596,461.812866 
	C650.411194,463.435577 655.876038,463.517792 661.106689,460.303467 
	C670.209534,454.709564 671.426575,443.397125 663.463562,436.241974 
	C657.703491,431.066284 650.566284,428.038910 643.912720,424.269318 
	C638.844849,421.398102 633.634644,418.764191 629.489136,414.511566 
	C621.887390,406.713470 621.885193,396.731171 629.979309,389.419403 
	C640.327026,380.071899 652.612793,380.193176 665.264587,383.043610 
	C667.040344,383.443695 668.767212,384.113098 670.469360,384.778839 
	C677.450867,387.509399 678.314636,389.013580 677.691040,397.378021 
	C674.449707,396.579895 672.493103,393.896484 669.866577,392.309082 
	C663.336548,388.362640 656.640381,385.183289 648.744019,387.452362 
	C644.267761,388.738678 640.347046,390.977112 638.921448,395.802460 
	C637.588257,400.315186 640.425720,403.395020 643.218811,406.280762 
	C647.934814,411.153198 653.967957,414.069763 659.886963,417.128845 
	C665.808411,420.189240 671.778076,423.173035 676.589783,427.945038 
	C686.950378,438.220184 685.359985,454.629272 672.894714,462.280426 
	C657.454773,471.757477 639.939270,469.817688 625.123596,460.661804 
	C620.603638,457.868500 622.759521,452.356354 622.211304,447.744507 
	C629.262329,453.012238 635.751648,458.731873 644.373596,461.812866 
z"/>
<path fill="#000000" opacity="1.000000" stroke="none" 
	d="
M131.911087,449.040222 
	C129.789185,438.130219 123.123741,435.629547 113.075500,436.184601 
	C97.585815,437.040253 101.371063,434.859344 95.692314,448.017517 
	C93.583862,452.902954 91.714645,457.891235 89.706505,462.820435 
	C87.371315,468.552521 86.759140,468.807983 79.896500,466.807251 
	C86.409340,456.409637 90.080742,444.837280 94.694595,433.678070 
	C101.176674,418.000427 107.447151,402.235260 113.924065,386.555450 
	C114.679672,384.726196 114.956436,381.862061 117.790382,382.028137 
	C120.223518,382.170715 120.437126,384.749115 121.162788,386.501923 
	C130.132324,408.167511 139.091476,429.837708 147.945709,451.550568 
	C150.195160,457.066833 153.436508,461.963928 158.015625,467.143524 
	C151.541306,468.601868 146.280167,468.021912 141.067352,467.830322 
	C139.321381,467.766174 138.867966,466.011047 138.301376,464.624908 
	C136.225220,459.545532 134.150330,454.465668 131.911087,449.040222 
M122.536713,426.842285 
	C119.761909,419.994598 116.987114,413.146881 114.212318,406.299194 
	C113.751877,406.269043 113.291428,406.238922 112.830986,406.208801 
	C110.192009,412.893036 107.509941,419.560760 104.939308,426.271210 
	C104.127548,428.390289 105.376579,429.506378 107.353241,429.554321 
	C111.816177,429.662628 116.284378,429.616150 120.749069,429.545654 
	C121.862602,429.528107 122.518173,428.759705 122.536713,426.842285 
z"/>
<path fill="#000000" opacity="1.000000" stroke="none" 
	d="
M372.545868,268.625519 
	C373.168884,265.036011 373.279114,261.731506 375.492828,257.959351 
	C378.552155,269.316833 378.978058,279.992767 378.070679,290.625061 
	C376.866119,304.739594 374.172394,318.588715 367.606079,331.392639 
	C356.692505,352.673370 338.976410,363.446503 315.437073,365.231110 
	C314.345825,365.313873 313.108612,365.617920 312.159027,364.563110 
	C312.056061,363.082916 313.326477,362.655579 314.238556,362.076477 
	C341.159546,344.984131 356.625000,319.538544 366.532196,290.121216 
	C368.859711,283.210175 370.520844,276.074738 372.545868,268.625519 
z"/>
<path fill="#000000" opacity="1.000000" stroke="none" 
	d="
M401.051514,313.954254 
	C416.750488,336.204529 436.930359,352.864685 460.233917,366.233490 
	C443.163635,368.595245 427.704132,364.893433 414.659119,354.013153 
	C394.553284,337.243835 385.882568,314.948151 385.378357,289.072601 
	C390.894440,297.074768 395.150726,305.823547 401.051514,313.954254 
z"/>
<path fill="#000000" opacity="1.000000" stroke="none" 
	d="
M161.671051,428.999939 
	C161.155045,416.414337 162.956421,404.243317 160.121078,391.676270 
	C165.262421,390.858002 170.202820,390.594116 175.154541,391.638184 
	C173.346939,413.285522 174.826569,434.545593 174.201431,455.772125 
	C174.062637,460.484406 175.450150,462.281097 180.344193,462.209137 
	C186.009659,462.125793 191.442596,461.278992 196.820663,458.765106 
	C196.761719,466.281128 195.715302,467.438690 189.897980,467.430084 
	C180.117294,467.415680 170.336578,467.426117 160.372833,467.426117 
	C162.767181,454.418457 161.216324,441.929504 161.671051,428.999939 
z"/>
<path fill="#000000" opacity="1.000000" stroke="none" 
	d="
M236.064499,463.857910 
	C235.292648,465.684784 235.075623,467.448669 232.769760,467.437988 
	C221.984070,467.388000 211.198029,467.415771 201.056442,467.415771 
	C201.868179,441.910492 202.405014,416.944122 200.625580,391.619843 
	C204.314941,390.560028 208.449982,391.135590 212.537903,391.147003 
	C214.712296,391.153076 215.203140,392.358215 215.010635,394.452606 
	C213.072845,415.537567 214.726501,436.677612 214.113098,457.784790 
	C214.028976,460.679688 215.259445,461.963623 218.119186,462.314789 
	C222.852188,462.895935 227.395813,462.391144 231.831070,460.711334 
	C233.202423,460.191925 234.426468,459.163757 235.993423,459.454498 
	C237.887558,460.783112 236.352005,462.172760 236.064499,463.857910 
z"/>
<path fill="#000000" opacity="1.000000" stroke="none" 
	d="
M270.391235,542.128784 
	C266.167419,542.307495 262.274963,542.307495 259.113892,542.307495 
	C263.905334,527.608887 265.841797,513.408691 263.304535,498.456512 
	C269.545776,496.384155 272.388641,497.695190 275.079651,504.321289 
	C277.709991,510.797852 280.418762,517.242676 283.121521,523.689514 
	C283.748413,525.184753 284.200256,526.829590 286.369873,528.033142 
	C290.231964,520.087158 294.290680,512.311462 297.817383,504.301605 
	C300.717010,497.716003 302.184418,496.712830 308.959045,498.115295 
	C306.293121,512.968933 307.885925,527.254517 312.406738,541.888550 
	C307.983582,541.888550 302.912323,541.888550 297.733185,541.888550 
	C305.204193,532.549316 300.758179,522.433655 300.213379,512.533936 
	C295.014893,521.005432 290.720581,529.756470 287.187012,538.887390 
	C286.577545,540.462402 286.688873,542.882324 284.161194,542.894043 
	C281.553802,542.906189 281.835236,540.518188 281.282196,538.888184 
	C278.132935,529.606201 274.253845,520.639709 269.580627,511.898712 
	C269.128662,521.995667 263.936920,532.180908 270.391235,542.128784 
z"/>
<path fill="#000000" opacity="1.000000" stroke="none" 
	d="
M369.143677,531.583252 
	C367.570099,538.709229 363.139618,542.191101 356.534454,542.997314 
	C348.465057,543.982239 340.514130,542.074463 332.948517,542.422180 
	C338.475433,527.496948 338.210693,513.249451 333.143036,498.995300 
	C333.112579,497.319916 334.594330,497.712097 335.857666,497.701599 
	C341.180878,497.657257 346.508118,497.779205 351.826996,497.615814 
	C357.427704,497.443787 362.890594,498.047882 365.525238,503.657867 
	C368.006897,508.942078 366.010864,513.714233 361.152863,517.647461 
	C366.576019,520.874756 369.805542,524.988708 369.143677,531.583252 
M356.926605,522.436279 
	C353.104248,520.513794 348.761719,518.852234 345.139496,521.464355 
	C341.583740,524.028564 343.674377,528.518250 343.793640,532.219177 
	C343.798981,532.383911 343.861603,532.547058 343.864655,532.711609 
	C343.942444,536.918640 346.371582,538.467957 350.276093,538.643921 
	C354.703583,538.843384 358.254944,537.371399 360.008240,533.218872 
	C361.637787,529.359375 360.889923,525.728943 356.926605,522.436279 
M343.677704,506.294830 
	C342.859497,515.621643 343.638336,516.533203 351.693054,515.668945 
	C355.064453,515.307251 358.062317,514.022278 358.526764,510.383942 
	C358.985962,506.786530 357.239868,503.471619 353.590088,502.816711 
	C350.266846,502.220306 345.843292,500.153595 343.677704,506.294830 
z"/>
<path fill="#000000" opacity="1.000000" stroke="none" 
	d="
M500.078491,514.606262 
	C501.062531,524.394531 499.934662,533.008606 491.554016,539.064758 
	C486.250732,542.897034 480.221558,543.763550 473.979187,543.166138 
	C468.678741,542.658813 463.418427,542.007874 458.091492,542.666260 
	C457.231506,542.772522 456.453857,542.484924 456.070007,541.583862 
	C461.559540,533.621948 461.617615,506.431366 456.161438,498.989746 
	C456.229584,498.838074 456.287048,498.559540 456.367432,498.552734 
	C467.195526,497.638611 478.164459,495.781799 488.660248,499.893555 
	C494.897736,502.337128 498.529572,507.572021 500.078491,514.606262 
M492.572968,521.375549 
	C490.496216,506.939423 483.963074,501.040497 471.724060,502.355194 
	C468.700928,502.679962 467.239319,503.892548 467.279297,507.061249 
	C467.380005,515.047607 467.199646,523.038696 467.373322,531.022583 
	C467.499969,536.846252 470.776215,539.305664 476.619598,538.391479 
	C486.796631,536.799316 489.760986,533.772217 492.572968,521.375549 
z"/>
<path fill="#000000" opacity="1.000000" stroke="none" 
	d="
M397.411011,501.258179 
	C409.584198,493.997894 424.395020,495.991211 431.636627,505.729889 
	C437.532166,513.658386 438.400848,522.316467 434.003754,531.081116 
	C429.749573,539.560913 422.654327,543.254150 412.947662,543.518372 
	C401.732147,543.823608 393.115082,537.723572 389.857056,529.389526 
	C385.823944,519.072571 388.449188,509.179871 397.411011,501.258179 
M396.599182,517.910400 
	C395.880157,523.948792 398.155243,529.191162 401.886658,533.510803 
	C405.273468,537.431580 409.718781,540.361572 415.442535,539.001648 
	C423.267853,537.142517 428.316284,530.874329 428.647766,522.925293 
	C429.026367,513.847412 423.353516,504.588104 415.977142,502.244110 
	C406.153992,499.122589 398.312714,505.159271 396.599182,517.910400 
z"/>
<path fill="#000000" opacity="1.000000" stroke="none" 
	d="
M167.375046,501.514099 
	C157.010071,501.348785 149.351746,508.250854 149.503311,517.203430 
	C149.728729,530.516846 157.305374,539.352905 167.877945,538.734070 
	C171.607758,538.515747 174.394211,536.674683 177.101013,534.304199 
	C178.701370,532.902710 179.884033,530.359192 182.789856,531.117676 
	C182.097351,540.787842 179.551910,543.276733 170.344971,543.347229 
	C163.023651,543.403320 155.685623,543.877441 149.485443,538.594482 
	C141.844177,532.083618 140.587128,523.508484 142.015762,514.511902 
	C143.383148,505.901001 148.997269,500.491577 157.396698,497.856903 
	C164.299164,495.691772 171.280197,497.835510 178.190460,497.075165 
	C179.053207,496.980255 179.963104,497.649567 179.960800,498.516693 
	C179.951050,502.199615 182.087799,505.804626 180.338272,510.453796 
	C176.262421,506.744171 173.172302,502.329132 167.375046,501.514099 
z"/>
<path fill="#000000" opacity="1.000000" stroke="none" 
	d="
M558.716614,542.414185 
	C557.220947,542.352417 555.972778,542.901367 555.054626,541.591309 
	C564.136719,528.375916 567.376526,512.805847 573.354614,497.779419 
	C579.570801,496.816040 580.001953,497.220032 581.462280,503.763641 
	C583.816040,514.310791 587.239441,524.543457 591.009338,534.663269 
	C591.932129,537.140381 593.687561,539.091248 595.772278,541.857971 
	C590.144226,542.747070 585.261719,542.313110 579.915039,542.334778 
	C583.294922,537.110779 583.533386,531.512024 580.906616,529.122742 
	C579.264343,527.629089 569.460693,527.722717 567.946472,529.246521 
	C565.523865,531.684509 565.575073,537.568115 568.201233,541.474976 
	C565.285278,543.301270 562.078674,541.925903 558.716614,542.414185 
M575.971924,511.142731 
	C575.343811,509.895630 574.421387,509.748138 573.870361,511.006927 
	C572.174133,514.882019 570.492432,518.786621 569.958801,523.058411 
	C575.122925,523.917786 575.175537,523.915100 579.014099,522.619629 
	C579.248169,518.725647 577.477295,515.287659 575.971924,511.142731 
z"/>
<path fill="#000000" opacity="1.000000" stroke="none" 
	d="
M219.130859,528.128357 
	C216.485458,528.394348 213.834641,527.520447 212.756195,530.557800 
	C211.409744,534.350037 209.809692,538.161926 215.335480,541.932007 
	C209.678940,541.932007 205.439636,541.932007 200.862091,541.932007 
	C209.294189,528.187561 213.540253,513.118958 218.710464,497.902039 
	C224.416229,496.270142 225.825394,497.024872 227.189941,503.322021 
	C228.953140,511.458832 231.347961,519.415955 233.998444,527.293152 
	C235.675766,532.278076 237.199081,537.384827 242.607330,541.902649 
	C235.994415,541.902649 231.020279,541.902649 225.926392,541.902649 
	C225.216827,538.957397 230.493362,539.414856 229.261429,536.158142 
	C228.385132,533.841614 228.128098,531.087341 226.682709,529.243164 
	C225.027344,527.131104 222.015671,528.246094 219.130859,528.128357 
M222.772995,514.722290 
	C221.914612,513.234375 222.230637,511.130035 220.116501,509.887482 
	C218.366486,514.212646 216.003632,518.144897 215.849930,523.279419 
	C218.942368,523.692383 221.787277,524.111450 224.892273,523.017334 
	C225.103287,520.238464 223.898651,517.858704 222.772995,514.722290 
z"/>
<path fill="#000000" opacity="1.000000" stroke="none" 
	d="
M534.235229,538.732178 
	C535.591431,539.612122 537.252869,539.740356 536.857849,541.937378 
	C531.045654,541.937378 525.206055,541.937378 519.366455,541.937378 
	C519.023621,541.588440 518.680786,541.239441 518.337952,540.890503 
	C526.144470,538.720764 524.576721,532.882996 524.648376,527.730530 
	C524.717773,522.746887 524.690125,517.761047 524.643921,512.776733 
	C524.595886,507.599518 526.039062,501.836243 518.422119,499.482574 
	C518.782227,499.122345 519.142334,498.762085 519.502502,498.401855 
	C525.265442,498.401855 531.028381,498.401855 537.242188,498.401855 
	C533.098022,502.991608 532.957581,502.971466 531.912048,510.257080 
	C530.822693,517.847351 531.132507,525.491333 531.779907,533.108582 
	C531.947205,535.076721 532.219299,537.110168 534.235229,538.732178 
z"/>
</svg>